<svg width="30" height="30" viewBox="0 0 30 30" fill="none" xmlns="http://www.w3.org/2000/svg">
<path d="M27.5 1.25H2.5C1.80964 1.25 1.25 1.80964 1.25 2.5V27.5C1.25 28.1904 1.80964 28.75 2.5 28.75H27.5C28.1904 28.75 28.75 28.1904 28.75 27.5V2.5C28.75 1.80964 28.1904 1.25 27.5 1.25Z" stroke="white" stroke-width="2" stroke-linecap="round" stroke-linejoin="round"/>
<path d="M5 20.2129V10.1377H7.4508V14.1816H11.4463V10.1377H13.8922V20.2129H11.4463V16.1641H7.4508V20.2129H5Z" fill="white"/>
<path d="M19.3062 16.5921H21.2867L22.1284 17.6597L23.2325 18.9191L24.9307 21H22.7126L21.5243 19.5881L20.8213 18.5845L19.3062 16.5921ZM25 15.1753C25 16.2838 24.7855 17.2235 24.3564 17.9942C23.9273 18.7649 23.3463 19.3503 22.6136 19.7504C21.8841 20.1506 21.0655 20.3506 20.1578 20.3506C19.2468 20.3506 18.4266 20.1489 17.6971 19.7455C16.9677 19.3421 16.3884 18.7567 15.9593 17.9893C15.5335 17.2185 15.3206 16.2806 15.3206 15.1753C15.3206 14.0668 15.5335 13.1272 15.9593 12.3564C16.3884 11.5857 16.9677 11.0003 17.6971 10.6002C18.4266 10.2001 19.2468 10 20.1578 10C21.0655 10 21.8841 10.2001 22.6136 10.6002C23.3463 11.0003 23.9273 11.5857 24.3564 12.3564C24.7855 13.1272 25 14.0668 25 15.1753ZM22.4947 15.1753C22.4947 14.5194 22.4007 13.9651 22.2125 13.5125C22.0277 13.0599 21.7603 12.7172 21.4104 12.4843C21.0639 12.2515 20.6463 12.1351 20.1578 12.1351C19.6726 12.1351 19.2551 12.2515 18.9052 12.4843C18.5553 12.7172 18.2863 13.0599 18.0982 13.5125C17.9133 13.9651 17.8209 14.5194 17.8209 15.1753C17.8209 15.8312 17.9133 16.3855 18.0982 16.8381C18.2863 17.2907 18.5553 17.6334 18.9052 17.8663C19.2551 18.0991 19.6726 18.2156 20.1578 18.2156C20.6463 18.2156 21.0639 18.0991 21.4104 17.8663C21.7603 17.6334 22.0277 17.2907 22.2125 16.8381C22.4007 16.3855 22.4947 15.8312 22.4947 15.1753Z" fill="white"/>
</svg>
