<svg width="801" height="238" viewBox="0 0 801 238" fill="none" xmlns="http://www.w3.org/2000/svg">
<path d="M794.906 209.558C794.906 212.543 794.317 215.497 793.174 218.254C792.031 221.011 790.356 223.515 788.244 225.624C786.132 227.733 783.626 229.405 780.867 230.545C778.108 231.685 775.152 232.27 772.167 232.267H28.0473C22.0162 232.273 16.2295 229.885 11.9598 225.626C7.69015 221.367 5.28716 215.588 5.2793 209.558V28.4648C5.28715 22.4325 7.6892 16.65 11.958 12.3867C16.2268 8.1235 22.0134 5.72813 28.0473 5.72656H772.161C775.148 5.72656 778.105 6.31475 780.864 7.45752C783.623 8.6003 786.13 10.2753 788.242 12.3868C790.353 14.4983 792.028 17.005 793.17 19.7637C794.313 22.5224 794.9 25.4791 794.9 28.4648L794.906 209.558Z" fill="white"/>
<path d="M772.166 237.553H28.0463C20.6167 237.552 13.4911 234.604 8.23306 229.356C2.97506 224.108 0.0141366 216.99 0 209.562L0 28.4742C0.0109911 21.0429 2.96996 13.9193 8.22779 8.66617C13.4856 3.41306 20.613 0.459397 28.0463 0.453125L772.16 0.453125C779.593 0.462527 786.718 3.4172 791.975 8.66962C797.233 13.9221 800.192 21.0438 800.207 28.4742V209.562C800.218 225.001 787.616 237.553 772.166 237.553Z" fill="white"/>
<path d="M794.906 209.558C794.906 212.543 794.317 215.497 793.174 218.254C792.031 221.011 790.356 223.515 788.244 225.624C786.132 227.733 783.626 229.405 780.867 230.545C778.108 231.685 775.152 232.27 772.167 232.267H28.0473C22.0162 232.273 16.2295 229.885 11.9598 225.626C7.69015 221.367 5.28716 215.588 5.2793 209.558V28.4648C5.28715 22.4325 7.6892 16.65 11.958 12.3867C16.2268 8.1235 22.0134 5.72813 28.0473 5.72656H772.161C775.148 5.72656 778.105 6.31475 780.864 7.45752C783.623 8.6003 786.13 10.2753 788.242 12.3868C790.353 14.4983 792.028 17.005 793.17 19.7637C794.313 22.5224 794.9 25.4791 794.9 28.4648L794.906 209.558Z" fill="white"/>
<path d="M178.681 117.753C178.509 98.6435 194.332 89.3466 195.055 88.9138C186.094 75.8519 172.204 74.0672 167.323 73.9249C155.658 72.6976 144.342 80.9035 138.399 80.9035C132.338 80.9035 123.187 74.0435 113.324 74.2451C100.632 74.4408 88.7592 81.787 82.2472 93.1946C68.8083 116.455 78.8312 150.636 91.7067 169.437C98.1475 178.651 105.674 188.926 115.524 188.565C125.162 188.173 128.762 182.428 140.392 182.428C151.915 182.428 155.296 188.565 165.342 188.334C175.686 188.173 182.197 179.084 188.413 169.793C195.856 159.245 198.845 148.845 198.964 148.312C198.726 148.229 178.882 140.651 178.681 117.753ZM159.702 61.5567C164.886 55.0762 168.432 46.2596 167.448 37.3125C159.945 37.6445 150.563 42.5005 145.16 48.8387C140.38 54.424 136.11 63.5786 137.213 72.1877C145.641 72.8162 154.293 67.9365 159.702 61.5567Z" fill="black"/>
<path d="M318.272 187.245H304.803L297.426 164.068H271.781L264.753 187.245H251.641L277.054 108.34H292.746L318.272 187.245ZM295.202 154.344L288.53 133.74C287.824 131.635 286.495 126.679 284.55 118.876H284.313C283.53 122.232 282.279 127.189 280.565 133.74L274.005 154.344H295.202ZM383.498 158.097C383.498 167.774 380.871 175.422 375.61 181.037C370.901 186.035 365.048 188.531 358.067 188.531C350.529 188.531 345.109 185.846 341.817 180.462V210.315H329.173V149.049C329.173 142.972 329.013 136.74 328.704 130.349H339.824L340.53 139.367H340.767C344.984 132.572 351.383 129.175 359.971 129.175C366.684 129.175 372.289 131.825 376.773 137.132C381.25 142.45 383.498 149.435 383.498 158.097ZM370.617 158.56C370.617 153.022 369.371 148.456 366.868 144.857C364.134 141.116 360.463 139.243 355.861 139.243C352.741 139.243 349.907 140.286 347.374 142.344C344.836 144.419 343.175 147.128 342.398 150.484C342.051 151.739 341.854 153.031 341.811 154.332V163.825C341.811 167.957 343.08 171.45 345.619 174.307C348.157 177.153 351.454 178.582 355.511 178.582C360.273 178.582 363.98 176.738 366.631 173.08C369.288 169.41 370.617 164.572 370.617 158.56ZM448.955 158.097C448.955 167.774 446.328 175.422 441.067 181.037C436.353 186.035 430.505 188.531 423.518 188.531C415.981 188.531 410.56 185.846 407.268 180.462V210.315H394.624V149.049C394.624 142.972 394.464 136.74 394.156 130.349H405.276L405.981 139.367H406.219C410.429 132.572 416.829 129.175 425.422 129.175C432.13 129.175 437.734 131.825 442.23 137.132C446.702 142.45 448.955 149.435 448.955 158.097ZM436.068 158.56C436.068 153.022 434.816 148.456 432.314 144.857C429.58 141.116 425.92 139.243 421.318 139.243C418.199 139.243 415.364 140.286 412.819 142.344C410.281 144.419 408.626 147.128 407.85 150.484C407.464 152.05 407.256 153.324 407.256 154.332V163.825C407.256 167.957 408.532 171.45 411.058 174.307C413.596 177.148 416.894 178.582 420.962 178.582C425.731 178.582 429.437 176.738 432.082 173.08C434.739 169.41 436.068 164.572 436.068 158.56ZM522.14 165.111C522.14 171.829 519.792 177.29 515.124 181.505C509.988 186.106 502.818 188.413 493.625 188.413C485.133 188.413 478.324 186.776 473.188 183.498L476.112 172.962C481.657 176.246 487.748 177.883 494.379 177.883C499.147 177.883 502.854 176.804 505.499 174.663C508.15 172.517 509.49 169.647 509.49 166.066C509.49 162.858 508.381 160.172 506.204 157.985C504.016 155.803 500.398 153.769 495.316 151.901C481.497 146.749 474.582 139.213 474.582 129.299C474.582 122.825 477.025 117.524 481.9 113.38C486.775 109.241 493.24 107.172 501.282 107.172C508.464 107.172 514.448 108.423 519.199 110.919L516.026 121.224C511.554 118.805 506.507 117.595 500.861 117.595C496.401 117.595 492.902 118.692 490.399 120.874C488.294 122.825 487.226 125.202 487.226 128.025C487.226 131.137 488.442 133.723 490.862 135.75C492.961 137.618 496.792 139.652 502.332 141.834C509.128 144.573 514.122 147.763 517.319 151.427C520.539 155.091 522.14 159.663 522.14 165.111ZM564.053 139.835H550.115V167.459C550.115 174.485 552.571 177.989 557.493 177.989C559.753 177.989 561.627 177.8 563.11 177.402L563.459 187.002C560.969 187.933 557.689 188.401 553.626 188.401C548.633 188.401 544.73 186.877 541.913 183.83C539.108 180.782 537.696 175.677 537.696 168.491V139.812H529.393V130.325H537.696V119.908L550.115 116.16V130.325H564.053V139.835ZM626.811 158.328C626.811 167.074 624.309 174.254 619.315 179.869C614.09 185.65 607.139 188.531 598.474 188.531C590.112 188.531 583.464 185.763 578.506 180.231C573.548 174.687 571.069 167.702 571.069 159.277C571.069 150.46 573.631 143.239 578.737 137.624C583.855 132.003 590.747 129.193 599.411 129.193C607.762 129.193 614.469 131.968 619.546 137.505C624.397 142.877 626.811 149.814 626.811 158.328ZM613.704 158.619C613.704 153.407 612.578 148.937 610.318 145.195C607.667 140.677 603.871 138.418 598.955 138.418C593.89 138.418 590.005 140.677 587.36 145.195C585.095 148.937 583.968 153.484 583.968 158.856C583.968 164.074 585.095 168.556 587.36 172.286C590.094 176.804 593.908 179.063 598.848 179.063C603.681 179.063 607.471 176.756 610.211 172.173C612.536 168.343 613.704 163.843 613.704 158.619ZM667.929 141.466C666.614 141.229 665.28 141.112 663.943 141.116C659.495 141.116 656.056 142.788 653.636 146.156C651.536 149.121 650.481 152.868 650.481 157.392V187.245H637.836V148.267C637.848 142.294 637.725 136.322 637.469 130.355H648.482L648.945 141.241H649.295C650.635 137.499 652.734 134.481 655.617 132.222C658.255 130.249 661.461 129.18 664.756 129.175C665.924 129.175 666.98 129.258 667.917 129.406L667.929 141.466ZM724.478 156.105C724.51 158.027 724.355 159.947 724.016 161.839H686.083C686.225 167.459 688.064 171.764 691.586 174.728C694.783 177.373 698.917 178.701 703.993 178.701C709.61 178.701 714.734 177.812 719.342 176.015L721.323 184.784C715.938 187.132 709.58 188.3 702.244 188.3C693.419 188.3 686.492 185.703 681.451 180.521C676.422 175.333 673.901 168.361 673.901 159.627C673.901 151.053 676.244 143.909 680.935 138.211C685.846 132.128 692.482 129.086 700.832 129.086C709.035 129.086 715.244 132.128 719.461 138.211C722.8 143.031 724.478 149.008 724.478 156.105ZM712.421 152.826C712.51 149.073 711.68 145.842 709.966 143.108C707.777 139.586 704.409 137.831 699.895 137.831C695.762 137.831 692.393 139.545 689.831 142.984C687.726 145.717 686.474 149.002 686.089 152.814L712.421 152.826Z" fill="black"/>
<path d="M268.133 80.441C264.616 80.441 261.573 80.2691 259.041 79.9786V41.8305C262.583 41.2835 266.162 41.0139 269.746 41.0241C284.247 41.0241 290.924 48.1569 290.924 59.7839C290.924 73.1956 283.037 80.441 268.133 80.441ZM270.256 45.9157C268.299 45.9157 266.632 46.0343 265.25 46.3189V75.3183C265.998 75.4368 267.433 75.4902 269.449 75.4902C278.95 75.4902 284.359 70.0828 284.359 59.9559C284.359 50.9258 279.466 45.9157 270.256 45.9157ZM311.735 80.7316C303.563 80.7316 298.267 74.6305 298.267 66.3475C298.267 57.7147 303.676 51.5602 312.198 51.5602C320.252 51.5602 325.667 57.3708 325.667 65.8909C325.667 74.6305 320.086 80.7316 311.735 80.7316ZM311.973 56.1019C307.483 56.1019 304.607 60.2998 304.607 66.1696C304.607 71.9268 307.542 76.1246 311.913 76.1246C316.284 76.1246 319.22 71.6363 319.22 66.051C319.22 60.3591 316.344 56.1019 311.973 56.1019ZM372.27 52.1353L363.522 80.0971H357.823L354.199 67.9543C353.298 64.984 352.548 61.9702 351.951 58.9242H351.833C351.376 61.9718 350.51 65.0253 349.591 67.9543L345.736 80.0971H339.977L331.746 52.1353H338.133L341.3 65.4285C342.047 68.5946 342.676 71.5829 343.198 74.4052H343.316C343.773 72.0513 344.52 69.1105 345.617 65.4878L349.591 52.1413H354.656L358.457 65.2032C359.377 68.3693 360.124 71.4762 360.705 74.4111H360.871C361.275 71.5355 361.909 68.482 362.769 65.2032L366.167 52.1413L372.27 52.1353ZM404.474 80.0971H398.258V64.041C398.258 59.0961 396.361 56.6178 392.618 56.6178C388.935 56.6178 386.403 59.7839 386.403 63.4659V80.0971H380.188V60.1278C380.188 57.6554 380.128 55.005 379.956 52.1294H385.424L385.715 56.4458H385.887C387.559 53.4575 390.952 51.5602 394.753 51.5602C400.625 51.5602 404.48 56.0486 404.48 63.3533L404.474 80.0971ZM421.614 80.0971H415.392V39.3047H421.614V80.0971ZM444.275 80.7316C436.108 80.7316 430.806 74.6305 430.806 66.3475C430.806 57.7147 436.215 51.5602 444.731 51.5602C452.791 51.5602 458.2 57.3708 458.2 65.8909C458.206 74.6305 452.619 80.7316 444.275 80.7316ZM444.506 56.1019C440.017 56.1019 437.14 60.2998 437.14 66.1696C437.14 71.9268 440.082 76.1246 444.441 76.1246C448.818 76.1246 451.747 71.6363 451.747 66.051C451.753 60.3591 448.883 56.1019 444.506 56.1019ZM482.706 80.0971L482.255 76.8776H482.089C480.191 79.4687 477.421 80.7316 473.911 80.7316C468.899 80.7316 465.341 77.2215 465.341 72.5019C465.341 65.6004 471.325 62.0311 481.686 62.0311V61.5152C481.686 57.8332 479.734 55.9893 475.88 55.9893C473.122 55.9893 470.702 56.683 468.573 58.0645L467.31 53.9793C469.895 52.3666 473.122 51.5602 476.911 51.5602C484.218 51.5602 487.907 55.4142 487.907 63.128V73.4269C487.907 76.2491 488.032 78.437 488.31 80.1031L482.706 80.0971ZM481.852 66.1696C474.948 66.1696 471.485 67.8416 471.485 71.8082C471.485 74.7431 473.27 76.178 475.749 76.178C478.91 76.178 481.852 73.7648 481.852 70.486V66.1696ZM518.088 80.0971L517.798 75.6088H517.626C515.841 79.0003 512.84 80.7316 508.647 80.7316C501.903 80.7316 496.91 74.8024 496.91 66.4601C496.91 57.7147 502.087 51.5543 509.157 51.5543C512.899 51.5543 515.55 52.8172 517.045 55.3549H517.169V39.3047H523.39V72.5612C523.39 75.2649 523.456 77.7966 523.622 80.0971H518.088ZM517.169 63.6438C517.169 59.7306 514.577 56.3925 510.622 56.3925C506.013 56.3925 503.196 60.4776 503.196 66.2289C503.196 71.8675 506.12 75.7274 510.497 75.7274C514.405 75.7274 517.169 72.33 517.169 68.3041V63.6438ZM562.836 80.7316C554.669 80.7316 549.373 74.6305 549.373 66.3475C549.373 57.7147 554.782 51.5602 563.298 51.5602C571.358 51.5602 576.767 57.3708 576.767 65.8909C576.773 74.6305 571.192 80.7316 562.836 80.7316ZM563.067 56.1019C558.583 56.1019 555.707 60.2998 555.707 66.1696C555.707 71.9268 558.643 76.1246 563.008 76.1246C567.384 76.1246 570.314 71.6363 570.314 66.051C570.326 60.3591 567.45 56.1019 563.067 56.1019ZM610.192 80.0971H603.971V64.041C603.971 59.0961 602.073 56.6178 598.331 56.6178C594.648 56.6178 592.121 59.7839 592.121 63.4659V80.0971H585.9V60.1278C585.9 57.6554 585.841 55.005 585.669 52.1294H591.137L591.427 56.4458H591.599C593.266 53.4575 596.664 51.5543 600.46 51.5543C606.331 51.5543 610.192 56.0426 610.192 63.3473V80.0971ZM652.01 56.7956H645.172V70.3734C645.172 73.8301 646.37 75.5554 648.789 75.5554C649.886 75.5554 650.806 75.4368 651.547 75.2649L651.719 79.9845C650.515 80.447 648.902 80.6782 646.897 80.6782C641.999 80.6782 639.069 77.9745 639.069 70.8951V56.7956H634.989V52.1353H639.069V47.0126L645.172 45.1686V52.1294H652.01V56.7956ZM684.913 80.0971H678.704V64.1596C678.704 59.1554 676.812 56.6237 673.064 56.6237C669.843 56.6237 666.842 58.8115 666.842 63.2406V80.0971H660.633V39.3047H666.842V56.1019H666.967C668.924 53.0544 671.759 51.5543 675.377 51.5543C681.295 51.5543 684.913 56.1553 684.913 63.4659V80.0971ZM718.623 67.6104H699.971C700.09 72.9051 703.595 75.8934 708.784 75.8934C711.542 75.8934 714.08 75.4309 716.322 74.5712L717.289 78.8876C714.644 80.0379 711.53 80.613 707.907 80.613C699.159 80.613 693.981 75.087 693.981 66.5194C693.981 57.9459 699.283 51.5009 707.207 51.5009C714.353 51.5009 718.837 56.7956 718.837 64.794C718.877 65.738 718.805 66.6833 718.623 67.6104ZM712.924 63.1813C712.924 58.8649 710.747 55.8173 706.774 55.8173C703.203 55.8173 700.381 58.9242 699.977 63.1813H712.924Z" fill="black"/>
</svg>
