<svg width="800" height="238" viewBox="0 0 800 238" fill="none" xmlns="http://www.w3.org/2000/svg">
<path d="M770.37 237.521H29.6296C13.037 237.521 0 224.484 0 207.892V30.114C0 13.5214 13.037 0.484375 29.6296 0.484375H770.37C786.963 0.484375 800 13.5214 800 30.114V207.892C800 224.484 786.963 237.521 770.37 237.521Z" fill="white"/>
<path d="M770.37 5.22512C784 5.22512 795.259 16.4844 795.259 30.114V207.892C795.259 221.521 784 232.781 770.37 232.781H29.6296C16 232.781 4.74074 221.521 4.74074 207.892V30.114C4.74074 16.4844 16 5.22512 29.6296 5.22512H770.37ZM770.37 0.484375H29.6296C13.037 0.484375 0 14.114 0 30.114V207.892C0 224.484 13.037 237.521 29.6296 237.521H770.37C786.963 237.521 800 224.484 800 207.892V30.114C800 14.114 786.963 0.484375 770.37 0.484375Z" fill="white"/>
<path d="M280.89 60.9227C280.89 65.6635 279.704 69.8116 276.741 72.7746C273.186 76.3301 269.038 78.1079 263.704 78.1079C258.371 78.1079 254.223 76.3301 250.667 72.7746C247.112 69.219 245.334 65.0709 245.334 59.7376C245.334 54.4042 247.112 50.2561 250.667 46.7005C254.223 43.145 258.371 41.3672 263.704 41.3672C266.075 41.3672 268.445 41.9598 270.815 43.145C273.186 44.3301 274.964 45.5153 276.149 47.2931L273.186 50.2561C270.815 47.2931 267.852 46.1079 263.704 46.1079C260.149 46.1079 256.593 47.2931 254.223 50.2561C251.26 52.6264 250.075 56.182 250.075 60.3302C250.075 64.4783 251.26 68.0339 254.223 70.4042C257.186 72.7746 260.149 74.5524 263.704 74.5524C267.852 74.5524 270.815 73.3672 273.778 70.4042C275.556 68.6264 276.741 66.2561 276.741 63.2931H263.704V58.5524H280.89V60.9227ZM308.149 46.1079H292.149V57.3672H306.964V61.5153H292.149V72.7746H308.149V77.5153H287.408V41.9598H308.149V46.1079ZM327.704 77.5153H322.964V46.1079H312.89V41.9598H337.778V46.1079H327.704V77.5153ZM354.964 77.5153V41.9598H359.704V77.5153H354.964ZM379.852 77.5153H375.112V46.1079H365.038V41.9598H389.334V46.1079H379.26V77.5153H379.852ZM436.149 72.7746C432.593 76.3301 428.445 78.1079 423.112 78.1079C417.778 78.1079 413.63 76.3301 410.075 72.7746C406.519 69.219 404.741 65.0709 404.741 59.7376C404.741 54.4042 406.519 50.2561 410.075 46.7005C413.63 43.145 417.778 41.3672 423.112 41.3672C428.445 41.3672 432.593 43.145 436.149 46.7005C439.704 50.2561 441.482 54.4042 441.482 59.7376C441.482 65.0709 439.704 69.219 436.149 72.7746ZM413.63 69.8116C416.001 72.182 419.556 73.9598 423.112 73.9598C426.667 73.9598 430.223 72.7746 432.593 69.8116C434.964 67.4413 436.741 63.8857 436.741 59.7376C436.741 55.5894 435.556 52.0339 432.593 49.6635C430.223 47.2931 426.667 45.5153 423.112 45.5153C419.556 45.5153 416.001 46.7005 413.63 49.6635C411.26 52.0339 409.482 55.5894 409.482 59.7376C409.482 63.8857 410.667 67.4413 413.63 69.8116ZM448.001 77.5153V41.9598H453.334L470.519 69.8116V41.9598H475.26V77.5153H470.519L452.149 48.4783V77.5153H448.001Z" fill="black" stroke="black" stroke-width="1.18519" stroke-miterlimit="10"/>
<path d="M403.555 129.664C389.332 129.664 378.073 140.331 378.073 155.146C378.073 169.368 389.332 180.627 403.555 180.627C417.777 180.627 429.036 169.961 429.036 155.146C429.036 139.738 417.777 129.664 403.555 129.664ZM403.555 169.961C395.851 169.961 389.332 163.442 389.332 154.553C389.332 145.664 395.851 139.146 403.555 139.146C411.258 139.146 417.777 145.072 417.777 154.553C417.777 163.442 411.258 169.961 403.555 169.961ZM348.444 129.664C334.221 129.664 322.962 140.331 322.962 155.146C322.962 169.368 334.221 180.627 348.444 180.627C362.666 180.627 373.925 169.961 373.925 155.146C373.925 139.738 362.666 129.664 348.444 129.664ZM348.444 169.961C340.74 169.961 334.221 163.442 334.221 154.553C334.221 145.664 340.74 139.146 348.444 139.146C356.147 139.146 362.666 145.072 362.666 154.553C362.666 163.442 356.147 169.961 348.444 169.961ZM282.666 137.368V148.035H308.147C307.555 153.961 305.184 158.701 302.221 161.664C298.666 165.22 292.74 169.368 282.666 169.368C266.666 169.368 254.814 156.924 254.814 140.924C254.814 124.924 267.258 112.479 282.666 112.479C290.962 112.479 297.481 116.035 302.221 120.183L309.925 112.479C303.407 106.553 295.11 101.812 283.258 101.812C261.925 101.812 243.555 119.59 243.555 140.924C243.555 162.257 261.925 180.035 283.258 180.035C295.11 180.035 303.407 176.479 310.518 168.775C317.629 161.664 319.999 151.59 319.999 143.887C319.999 141.516 319.999 139.146 319.407 137.368H282.666ZM551.703 145.664C549.332 139.738 543.407 129.664 530.37 129.664C517.332 129.664 506.666 139.738 506.666 155.146C506.666 169.368 517.332 180.627 531.555 180.627C542.814 180.627 549.925 173.516 552.295 169.368L543.999 163.442C541.036 167.59 537.481 170.553 531.555 170.553C525.629 170.553 522.073 168.183 519.11 162.85L552.888 148.627L551.703 145.664ZM517.332 153.961C517.332 144.479 525.036 139.146 530.37 139.146C534.518 139.146 538.666 141.516 539.851 144.479L517.332 153.961ZM489.481 178.257H500.74V104.183H489.481V178.257ZM471.703 134.998C468.74 132.035 463.999 129.072 458.073 129.072C445.629 129.072 433.777 140.331 433.777 154.553C433.777 168.775 445.036 179.442 458.073 179.442C463.999 179.442 468.74 176.479 471.11 173.516H471.703V177.072C471.703 186.553 466.37 191.887 458.073 191.887C451.555 191.887 446.814 187.146 445.629 182.998L436.147 187.146C439.11 193.664 446.221 201.961 458.666 201.961C471.703 201.961 482.37 194.257 482.37 175.887V130.85H471.703V134.998ZM458.666 169.961C450.962 169.961 444.444 163.442 444.444 154.553C444.444 145.664 450.962 139.146 458.666 139.146C466.37 139.146 472.295 145.664 472.295 154.553C472.295 163.442 466.37 169.961 458.666 169.961ZM603.258 104.183H576.592V178.257H587.851V150.405H603.258C615.703 150.405 627.555 141.516 627.555 127.294C627.555 113.072 615.703 104.183 603.258 104.183ZM603.851 139.738H587.851V114.257H603.851C612.147 114.257 616.888 121.368 616.888 126.701C616.295 133.22 611.555 139.738 603.851 139.738ZM671.999 129.072C663.703 129.072 655.407 132.627 652.444 140.331L662.518 144.479C664.888 140.331 668.444 139.146 672.592 139.146C678.518 139.146 683.851 142.701 684.444 148.627V149.22C682.666 148.035 677.925 146.257 673.184 146.257C662.518 146.257 651.851 152.183 651.851 162.85C651.851 172.924 660.74 179.442 670.221 179.442C677.925 179.442 681.481 175.887 684.444 172.331H685.036V178.257H695.703V149.813C694.518 136.775 684.444 129.072 671.999 129.072ZM670.814 169.961C667.258 169.961 661.925 168.183 661.925 163.442C661.925 157.516 668.444 155.738 673.777 155.738C678.518 155.738 680.888 156.924 683.851 158.109C682.666 165.22 676.74 169.961 670.814 169.961ZM733.036 130.85L720.592 162.85H719.999L706.962 130.85H695.11L714.666 175.887L703.407 200.775H714.666L744.888 130.85H733.036ZM633.481 178.257H644.74V104.183H633.481V178.257Z" fill="black"/>
<path d="M61.6301 44.9297C59.8524 46.7075 59.2598 49.6704 59.2598 53.226V184.189C59.2598 187.744 60.445 190.707 62.2227 192.485L62.8153 193.078L136.297 119.596V118.411L61.6301 44.9297Z" fill="url(#paint0_linear_3381_1171)"/>
<path d="M160.001 144.48L135.705 120.183V118.406L160.001 94.1094L160.594 94.702L189.631 111.295C197.927 116.035 197.927 123.739 189.631 128.48L160.001 144.48Z" fill="url(#paint1_linear_3381_1171)"/>
<path d="M160.594 143.889L135.705 119L61.6309 193.074C64.5938 196.037 68.742 196.037 74.0753 193.667L160.594 143.889Z" fill="url(#paint2_linear_3381_1171)"/>
<path d="M160.594 94.1098L74.0753 44.9246C68.742 41.9616 64.5938 42.5542 61.6309 45.5172L135.705 118.999L160.594 94.1098Z" fill="url(#paint3_linear_3381_1171)"/>
<path opacity="0.2" d="M160.001 143.297L74.0753 191.889C69.3346 194.852 65.1864 194.26 62.2235 191.889L61.6309 192.482L62.2235 193.075C65.1864 195.445 69.3346 196.038 74.0753 193.075L160.001 143.297Z" fill="black"/>
<path opacity="0.12" d="M61.6301 191.889C59.8524 190.111 59.2598 187.148 59.2598 183.593V184.185C59.2598 187.741 60.445 190.704 62.2227 192.481V191.889H61.6301ZM189.63 126.704L160.001 143.296L160.593 143.889L189.63 127.296C193.778 124.926 195.556 121.963 195.556 119C195.556 121.963 193.186 124.333 189.63 126.704Z" fill="black"/>
<path opacity="0.25" d="M74.0746 45.5193L189.63 111.297C193.186 113.667 195.556 116.038 195.556 119.001C195.556 116.038 193.778 113.075 189.63 110.704L74.0746 44.9267C65.7783 40.1859 59.2598 43.7415 59.2598 53.223V53.8155C59.2598 44.9267 65.7783 40.7785 74.0746 45.5193Z" fill="white"/>
<defs>
<linearGradient id="paint0_linear_3381_1171" x1="129.186" y1="52.1001" x2="29.7309" y2="151.549" gradientUnits="userSpaceOnUse">
<stop stop-color="#00A0FF"/>
<stop offset="0.007" stop-color="#00A1FF"/>
<stop offset="0.26" stop-color="#00BEFF"/>
<stop offset="0.512" stop-color="#00D2FF"/>
<stop offset="0.76" stop-color="#00DFFF"/>
<stop offset="1" stop-color="#00E3FF"/>
</linearGradient>
<linearGradient id="paint1_linear_3381_1171" x1="200.499" y1="119.004" x2="57.1095" y2="119.004" gradientUnits="userSpaceOnUse">
<stop stop-color="#FFE000"/>
<stop offset="0.409" stop-color="#FFBD00"/>
<stop offset="0.775" stop-color="#FFA500"/>
<stop offset="1" stop-color="#FF9C00"/>
</linearGradient>
<linearGradient id="paint2_linear_3381_1171" x1="147.124" y1="132.606" x2="12.262" y2="267.468" gradientUnits="userSpaceOnUse">
<stop stop-color="#FF3A44"/>
<stop offset="1" stop-color="#C31162"/>
</linearGradient>
<linearGradient id="paint3_linear_3381_1171" x1="43.2427" y1="1.52308" x2="103.468" y2="61.7483" gradientUnits="userSpaceOnUse">
<stop stop-color="#32A071"/>
<stop offset="0.069" stop-color="#2DA771"/>
<stop offset="0.476" stop-color="#15CF74"/>
<stop offset="0.801" stop-color="#06E775"/>
<stop offset="1" stop-color="#00F076"/>
</linearGradient>
</defs>
</svg>
