<svg width="30" height="27" viewBox="0 0 30 27" fill="none" xmlns="http://www.w3.org/2000/svg">
<path d="M28.3125 12.2975L22.675 17.2175L24.3637 24.5425C24.4531 24.9254 24.4276 25.3262 24.2904 25.6947C24.1533 26.0632 23.9105 26.3831 23.5925 26.6144C23.2745 26.8457 22.8954 26.9782 22.5025 26.9951C22.1097 27.0121 21.7205 26.913 21.3837 26.71L14.995 22.835L8.62 26.71C8.28321 26.913 7.89407 27.0121 7.50122 26.9951C7.10836 26.9782 6.72924 26.8457 6.41124 26.6144C6.09324 26.3831 5.85048 26.0632 5.71331 25.6947C5.57613 25.3262 5.55064 24.9254 5.64 24.5425L7.32625 17.225L1.6875 12.2975C1.38926 12.0403 1.1736 11.7007 1.06757 11.3214C0.961536 10.9421 0.969848 10.54 1.09146 10.1654C1.21308 9.79079 1.44258 9.46044 1.7512 9.21576C2.05981 8.97109 2.43379 8.82297 2.82625 8.79L10.2587 8.14624L13.16 1.22624C13.3115 0.86314 13.5671 0.552979 13.8945 0.334817C14.2219 0.116654 14.6066 0.000244141 15 0.000244141C15.3934 0.000244141 15.7781 0.116654 16.1055 0.334817C16.4329 0.552979 16.6885 0.86314 16.84 1.22624L19.75 8.14624L27.18 8.79C27.5725 8.82297 27.9464 8.97109 28.2551 9.21576C28.5637 9.46044 28.7932 9.79079 28.9148 10.1654C29.0364 10.54 29.0447 10.9421 28.9387 11.3214C28.8326 11.7007 28.617 12.0403 28.3187 12.2975H28.3125Z" fill="#EDA13F"/>
</svg>
