<svg width="29" height="27" viewBox="0 0 29 27" fill="none" xmlns="http://www.w3.org/2000/svg">
<path d="M28.9 10.1612C28.7789 9.78798 28.5507 9.45858 28.2437 9.21409C27.9367 8.96959 27.5647 8.8208 27.1738 8.78625L19.75 8.14624L16.84 1.22624C16.6885 0.86314 16.4329 0.552979 16.1055 0.334817C15.7781 0.116654 15.3934 0.000244141 15 0.000244141C14.6066 0.000244141 14.2219 0.116654 13.8945 0.334817C13.5671 0.552979 13.3115 0.86314 13.16 1.22624L10.2588 8.14624L2.82625 8.78874C2.43351 8.82148 2.0592 8.96953 1.75031 9.21428C1.44143 9.45903 1.21174 9.78959 1.09008 10.1644C0.968422 10.5393 0.960223 10.9417 1.06651 11.3212C1.1728 11.7007 1.38884 12.0404 1.6875 12.2975L7.32625 17.225L5.63625 24.5425C5.54689 24.9254 5.57239 25.3262 5.70956 25.6947C5.84673 26.0632 6.0895 26.3831 6.40749 26.6144C6.72549 26.8457 7.10462 26.9782 7.49747 26.9951C7.89032 27.0121 8.27946 26.913 8.61625 26.71L14.9913 22.835L21.38 26.71C21.7168 26.913 22.1059 27.0121 22.4988 26.9951C22.8916 26.9782 23.2708 26.8457 23.5888 26.6144C23.9068 26.3831 24.1495 26.0632 24.2867 25.6947C24.4239 25.3262 24.4494 24.9254 24.36 24.5425L22.6713 17.2175L28.3088 12.2975C28.607 12.0394 28.8222 11.6989 28.9274 11.3188C29.0326 10.9387 29.0231 10.5359 28.9 10.1612ZM26.9975 10.7862L21.36 15.7062C21.0856 15.9449 20.8815 16.2539 20.7696 16.5999C20.6577 16.9459 20.6423 17.3159 20.725 17.67L22.4188 25L16.035 21.125C15.7235 20.9353 15.3659 20.835 15.0013 20.835V2.01124L17.9013 8.92125C18.0421 9.25707 18.272 9.54806 18.566 9.76283C18.8601 9.97761 19.2072 10.108 19.57 10.14L27 10.7825C27 10.7825 27 10.79 27 10.7912L26.9975 10.7862Z" fill="#EDA13F"/>
</svg>
