<svg width="32" height="32" viewBox="0 0 32 32" fill="none" xmlns="http://www.w3.org/2000/svg">
<path d="M16 31C24.2843 31 31 24.2843 31 16C31 7.71573 24.2843 1 16 1C7.71573 1 1 7.71573 1 16C1 24.2843 7.71573 31 16 31Z" stroke="white" stroke-width="2" stroke-linecap="round" stroke-linejoin="round"/>
<path d="M8.64053 22H6L9.42971 11H12.7006L16.1303 22H13.4898L11.1024 13.7715H11.023L8.64053 22ZM8.28813 17.6709H13.8074V19.6904H8.28813V17.6709Z" fill="white"/>
<path d="M20.982 22H17.2247V11H20.977C22.0127 11 22.9045 11.2202 23.6523 11.6606C24.4034 12.0975 24.9825 12.7277 25.3895 13.5513C25.7965 14.3713 26 15.3524 26 16.4946C26 17.6405 25.7965 18.6252 25.3895 19.4487C24.9858 20.2723 24.4084 20.9043 23.6573 21.3447C22.9062 21.7816 22.0144 22 20.982 22ZM19.6816 19.7334H20.8877C21.4568 19.7334 21.9383 19.6296 22.3321 19.4219C22.7291 19.2106 23.0286 18.8687 23.2304 18.396C23.4356 17.9198 23.5382 17.286 23.5382 16.4946C23.5382 15.7033 23.4356 15.0731 23.2304 14.604C23.0253 14.1313 22.7225 13.7912 22.3221 13.5835C21.9251 13.3722 21.4353 13.2666 20.853 13.2666H19.6816V19.7334Z" fill="white"/>
<line x1="6.70711" y1="5.29289" x2="9.70711" y2="8.29289" stroke="white" stroke-width="2"/>
<line x1="23.7071" y1="23.2929" x2="26.7071" y2="26.2929" stroke="white" stroke-width="2"/>
</svg>
